<?xml version="1.0" encoding="iso-8859-1"?>
<!-- Uploaded to: SVG Repo, www.svgrepo.com, Generator: SVG Repo Mixer Tools -->
<svg height="800px" width="800px" version="1.1" id="Layer_1" xmlns="http://www.w3.org/2000/svg" xmlns:xlink="http://www.w3.org/1999/xlink" 
	 viewBox="0 0 512.003 512.003" xml:space="preserve">
<g>
	<path style="fill:#115B4D;" d="M352.259,159.744c0.521,5.544,0.847,11.14,0.847,16.808c0,97.51-79.042,176.552-176.552,176.552
		c-5.676,0-11.273-0.327-16.817-0.839C168.212,441.874,243.609,512,335.451,512c97.509,0,176.552-79.042,176.552-176.552
		C512.003,243.615,441.867,168.218,352.259,159.744"/>
	<g>
		<path style="fill:#FFFFFF;" d="M335.448,450.21c-4.882,0-8.828-3.946-8.828-8.828V247.175c0-4.882,3.946-8.828,8.828-8.828
			c4.882,0,8.828,3.946,8.828,8.828v194.207C344.276,446.264,340.33,450.21,335.448,450.21"/>
		<path style="fill:#FFFFFF;" d="M379.586,300.141c-4.882,0-8.828-3.946-8.828-8.828v-52.966c0-4.882,3.946-8.828,8.828-8.828
			c4.882,0,8.828,3.946,8.828,8.828v52.966C388.414,296.195,384.468,300.141,379.586,300.141"/>
		<path style="fill:#FFFFFF;" d="M291.31,441.382c-4.882,0-8.828-3.946-8.828-8.828v-52.966c0-4.882,3.946-8.828,8.828-8.828
			c4.882,0,8.828,3.946,8.828,8.828v52.966C300.138,437.436,296.192,441.382,291.31,441.382"/>
		<path style="fill:#FFFFFF;" d="M379.595,273.658c-2.595,0-5.164-1.139-6.912-3.328c-6.515-8.166-21.239-13.789-37.526-14.336
			c-4.873-0.159-8.695-4.237-8.527-9.11s4.379-8.713,9.11-8.527c21.884,0.715,40.854,8.563,50.75,20.974
			c3.037,3.814,2.419,9.366-1.404,12.403C383.462,273.031,381.519,273.658,379.595,273.658"/>
		<path style="fill:#FFFFFF;" d="M335.448,432.554c-21.813,0-40.413-7.645-51.041-20.983c-3.037-3.814-2.419-9.366,1.404-12.403
			c3.814-3.037,9.375-2.41,12.403,1.404c7.15,8.978,21.071,14.327,37.235,14.327c21.222,0,44.138-13.497,44.138-35.31
			c0-21.124-22.819-35.31-44.138-35.31c-21.813,0-42.911-10.496-53.76-26.748c-2.701-4.052-1.607-9.534,2.454-12.244
			c4.034-2.71,9.525-1.615,12.235,2.445c7.654,11.476,22.996,18.891,39.071,18.891c29.714,0,61.793,20.25,61.793,52.966
			S365.162,432.554,335.448,432.554"/>
	</g>
	<path style="fill:#13A085;" d="M353.103,176.554c0-97.51-79.042-176.552-176.552-176.552S0,79.045,0,176.554
		s79.042,176.552,176.552,176.552S353.103,274.064,353.103,176.554"/>
	<g>
		<path style="fill:#FFFFFF;" d="M176.552,291.313c-4.882,0-8.828-3.946-8.828-8.828V70.623c0-4.882,3.946-8.828,8.828-8.828
			s8.828,3.946,8.828,8.828v211.862C185.379,287.367,181.433,291.313,176.552,291.313"/>
		<path style="fill:#FFFFFF;" d="M176.552,273.658c-21.813,0-40.413-7.645-51.041-20.983c-3.037-3.814-2.419-9.366,1.404-12.403
			c3.814-3.037,9.375-2.419,12.403,1.404c7.15,8.978,21.071,14.327,37.235,14.327c21.222,0,44.138-13.497,44.138-35.31
			c0-21.124-22.819-35.31-44.138-35.31c-29.714,0-61.793-20.25-61.793-52.966s32.079-52.966,61.793-52.966
			c22.131,0,40.263,7.45,51.041,20.983c3.037,3.814,2.419,9.366-1.404,12.403c-3.814,3.037-9.366,2.41-12.403-1.404
			c-7.362-9.242-20.586-14.327-37.235-14.327c-21.319,0-44.138,14.186-44.138,35.31c0,21.813,22.916,35.31,44.138,35.31
			c29.714,0,61.793,20.25,61.793,52.966S206.265,273.658,176.552,273.658"/>
		<path style="fill:#FFFFFF;" d="M220.69,141.244c-4.882,0-8.828-3.946-8.828-8.828V79.451c0-4.882,3.946-8.828,8.828-8.828
			s8.828,3.946,8.828,8.828v52.966C229.517,137.298,225.571,141.244,220.69,141.244"/>
		<path style="fill:#FFFFFF;" d="M132.414,282.485c-4.882,0-8.828-3.946-8.828-8.828v-52.966c0-4.882,3.946-8.828,8.828-8.828
			c4.882,0,8.828,3.946,8.828,8.828v52.966C141.241,278.539,137.295,282.485,132.414,282.485"/>
	</g>
</g>
</svg>